<svg xmlns="http://www.w3.org/2000/svg" xmlns:xlink="http://www.w3.org/1999/xlink" width="54" zoomAndPan="magnify" viewBox="0 0 40.5 39.749999" height="53" preserveAspectRatio="xMidYMid meet" version="1.0"><defs><clipPath id="f523a45a7d"><path d="M 12.550781 0.117188 L 26.625 0.117188 L 26.625 39.382812 L 12.550781 39.382812 Z M 12.550781 0.117188 " clip-rule="nonzero"/></clipPath></defs><g clip-path="url(#f523a45a7d)"><path fill="#ee6400" d="M 25.007812 9.027344 L 23.828125 9.503906 L 23.808594 8.941406 L 25.007812 8.605469 Z M 25.007812 9.761719 L 23.859375 10.257812 L 23.84375 9.835938 L 25.007812 9.363281 Z M 23.980469 23.582031 L 24.109375 25.136719 L 22.90625 23.878906 L 22.882812 23.851562 L 22.644531 19.628906 L 22.789062 19.449219 Z M 24.195312 26.128906 L 23.011719 26.214844 L 22.90625 24.332031 L 24.152344 25.632812 Z M 24.292969 27.273438 L 23.191406 29.390625 L 23.03125 26.523438 L 24.222656 26.4375 Z M 24.816406 33.457031 L 23.308594 31.507812 L 23.222656 30 L 24.339844 27.855469 Z M 24.890625 34.367188 L 24.160156 34.4375 L 24.160156 33.835938 L 23.710938 33.300781 L 24.882812 34.28125 Z M 23.394531 33.050781 L 23.394531 33.035156 L 23.410156 33.050781 Z M 23.339844 32.054688 L 24.496094 33.550781 L 23.371094 32.609375 Z M 22.597656 18.78125 L 22.683594 19.078125 L 22.621094 19.160156 Z M 22.496094 16.890625 L 23.472656 17.601562 L 23.492188 17.828125 L 22.660156 17.863281 L 22.519531 17.382812 Z M 22.402344 15.246094 L 23.140625 13.648438 L 23.425781 17.015625 L 22.457031 16.210938 Z M 22.03125 34.628906 L 21.46875 34.679688 L 21.46875 34.1875 L 20.699219 33.128906 L 20.246094 33.164062 L 20.246094 31.496094 L 21.40625 31.375 L 22.328125 32.148438 L 22.386719 33.183594 L 21.546875 33.292969 L 21.546875 34.023438 Z M 19.234375 12.800781 L 18.808594 13.179688 L 18.230469 12.699219 L 18.320312 10.929688 L 18.851562 10.929688 L 18.851562 12.636719 L 19.234375 12.636719 Z M 19.234375 13.53125 L 19.050781 13.378906 L 19.234375 13.21875 Z M 19.234375 16.039062 L 18.058594 16.085938 L 18.15625 14.171875 L 18.816406 13.589844 L 19.234375 13.9375 Z M 19.234375 17.996094 L 17.957031 18.042969 L 18.042969 16.398438 L 19.234375 16.347656 Z M 19.234375 20.066406 L 17.925781 18.707031 L 17.941406 18.355469 L 19.234375 18.304688 Z M 19.234375 23.429688 L 18.871094 23.886719 L 17.65625 23.984375 L 17.902344 19.136719 L 19.234375 20.515625 Z M 19.234375 26.492188 L 17.519531 26.617188 L 17.546875 26.050781 L 19.03125 24.183594 L 19.234375 24.167969 Z M 19.234375 26.839844 L 17.914062 28.054688 L 17.464844 27.679688 L 17.503906 26.929688 L 19.234375 26.800781 Z M 19.234375 29.152344 L 18.15625 28.253906 L 19.234375 27.261719 Z M 19.234375 31.289062 L 17.273438 31.492188 L 17.402344 28.949219 L 17.925781 28.46875 L 19.234375 29.558594 Z M 19.234375 33.242188 L 17.960938 33.339844 L 18 35 L 17.089844 35.082031 L 17.253906 31.804688 L 19.234375 31.601562 Z M 17.09375 15.113281 L 17.089844 15.171875 L 17.082031 15.121094 Z M 17.03125 14.753906 L 16.597656 11.777344 L 16.6875 10.742188 L 17.3125 10.816406 L 17.117188 14.679688 Z M 16.980469 17.359375 L 16.191406 16.480469 L 16.191406 16.472656 L 16.960938 16.441406 L 17.007812 16.773438 Z M 16.867188 19.519531 L 15.671875 22.507812 L 16.121094 17.289062 L 16.9375 18.136719 Z M 16.636719 24.070312 L 15.53125 24.160156 L 15.582031 23.574219 L 16.820312 20.480469 Z M 16.539062 25.972656 L 15.472656 24.847656 L 15.503906 24.476562 L 16.621094 24.382812 Z M 16.359375 29.484375 L 15.960938 29.851562 L 15.363281 26.089844 L 15.4375 25.265625 L 16.515625 26.402344 Z M 16.253906 31.597656 L 16.234375 31.597656 L 16.019531 30.222656 L 16.339844 29.929688 Z M 16.113281 34.316406 L 14.824219 32.378906 L 14.851562 32.054688 L 15.972656 31.9375 L 16.171875 33.183594 Z M 14.921875 31.234375 L 15.742188 30.476562 L 15.925781 31.628906 L 14.878906 31.742188 Z M 15.253906 27.378906 L 15.683594 30.105469 L 14.960938 30.773438 Z M 16.804688 15.371094 L 16.914062 16.132812 L 16.21875 16.160156 L 16.246094 15.867188 Z M 16.285156 15.414062 L 16.480469 13.136719 L 16.75 15 Z M 17.445312 28.066406 L 17.683594 28.265625 L 17.421875 28.503906 Z M 17.636719 24.296875 L 18.605469 24.21875 L 17.574219 25.515625 Z M 15.902344 9.890625 L 18.113281 10.148438 L 18.113281 10.597656 L 15.902344 10.332031 Z M 15.902344 9.03125 L 17.367188 9.191406 L 18.113281 9.363281 L 18.113281 9.835938 L 15.902344 9.574219 Z M 18.210938 13.085938 L 18.574219 13.386719 L 18.175781 13.738281 Z M 18.425781 10.171875 L 21.074219 10.171875 L 21.074219 10.617188 L 18.425781 10.617188 Z M 18.425781 9.433594 L 19.402344 9.65625 C 19.632812 9.707031 19.871094 9.707031 20.097656 9.65625 L 21.074219 9.433594 L 21.074219 9.863281 L 18.425781 9.863281 Z M 21.394531 15.328125 L 20.246094 14.371094 L 20.246094 12.636719 L 20.601562 12.636719 L 20.601562 10.929688 L 21.148438 10.929688 Z M 22.15625 10.820312 L 22.894531 10.730469 L 23.085938 13.019531 L 22.367188 14.582031 Z M 22.28125 31.285156 L 22.304688 31.722656 L 21.835938 31.332031 Z M 21.917969 24.789062 L 22.003906 26.289062 L 20.246094 26.417969 L 20.246094 26.332031 Z M 21.871094 23.949219 L 21.898438 24.386719 L 20.246094 25.90625 L 20.246094 24.082031 Z M 20.71875 22.058594 L 21.832031 23.210938 L 21.855469 23.636719 L 20.246094 23.769531 L 20.246094 22.652344 Z M 20.5 21.832031 L 20.246094 22.152344 L 20.246094 21.566406 Z M 21.699219 20.824219 L 21.804688 22.734375 L 20.914062 21.8125 Z M 21.554688 18.214844 L 21.671875 20.355469 L 20.695312 21.585938 L 20.246094 21.117188 L 20.246094 18.269531 Z M 20.246094 15.996094 L 20.246094 14.777344 L 21.417969 15.75 L 21.429688 15.949219 Z M 21.445312 16.261719 L 21.535156 17.90625 L 20.246094 17.957031 L 20.246094 16.308594 Z M 21.074219 31.097656 L 20.246094 31.183594 L 20.246094 30.40625 Z M 20.246094 30 L 20.246094 26.730469 L 22.019531 26.597656 L 22.265625 30.972656 L 21.503906 31.050781 Z M 22.921875 18.78125 L 22.746094 18.171875 L 23.425781 18.144531 Z M 23.550781 18.492188 L 23.84375 21.984375 L 23.027344 19.148438 Z M 21.386719 10.15625 L 23.535156 9.894531 L 23.550781 10.339844 L 21.386719 10.597656 Z M 21.386719 9.363281 L 22.332031 9.144531 L 23.496094 8.992188 L 23.519531 9.582031 L 21.386719 9.839844 Z M 15.589844 9.484375 L 14.441406 9.027344 L 14.441406 8.570312 L 15.589844 8.96875 Z M 15.589844 10.25 L 14.441406 9.832031 L 14.441406 9.363281 L 15.589844 9.820312 Z M 25.320312 8.519531 L 25.320312 8.460938 L 25.6875 8.378906 C 26.394531 8.214844 26.898438 7.585938 26.898438 6.859375 L 26.898438 2.589844 C 26.898438 1.828125 26.34375 1.175781 25.589844 1.050781 L 20 0.140625 C 19.835938 0.113281 19.664062 0.113281 19.5 0.140625 L 13.910156 1.050781 C 13.15625 1.175781 12.601562 1.828125 12.601562 2.589844 L 12.601562 6.859375 C 12.601562 7.585938 13.105469 8.214844 13.8125 8.378906 L 14.128906 8.449219 L 14.128906 10.050781 L 15.589844 10.582031 L 15.679688 10.613281 L 14.507812 24.246094 L 14.46875 24.25 L 14.503906 24.285156 L 13.660156 34.089844 L 12.933594 34.136719 L 12.871094 34.90625 L 13.375 35.589844 L 15.421875 35.460938 L 15.421875 34.757812 L 14.929688 34.011719 L 14.679688 34.027344 L 14.78125 32.875 L 16.085938 34.839844 L 15.945312 37.65625 L 15.066406 37.761719 L 15.066406 38.453125 L 15.585938 39.328125 L 17.730469 39.148438 L 17.730469 38.367188 L 17.175781 37.507812 L 16.964844 37.535156 L 17.074219 35.394531 L 18.003906 35.308594 L 18.023438 36.019531 L 18.71875 37.054688 L 21.46875 36.851562 L 21.46875 34.996094 L 24.917969 34.679688 L 25.085938 36.675781 L 24.160156 36.75 L 24.160156 37.445312 L 24.828125 38.304688 L 26.898438 38.152344 L 26.898438 37.382812 L 26.292969 36.574219 L 26.09375 36.589844 L 25.230469 26.363281 L 25.28125 26.359375 L 25.226562 26.300781 L 24.53125 18.101562 L 24.691406 18.09375 L 24.519531 17.972656 L 23.894531 10.578125 L 25.320312 9.96875 L 25.320312 8.519531 " fill-opacity="1" fill-rule="nonzero"/></g></svg>