<svg xmlns="http://www.w3.org/2000/svg" xmlns:xlink="http://www.w3.org/1999/xlink" width="54" zoomAndPan="magnify" viewBox="0 0 40.5 39.749999" height="53" preserveAspectRatio="xMidYMid meet" version="1.0"><defs><clipPath id="e5118413d6"><path d="M 2.492188 11 L 37.3125 11 L 37.3125 37 L 2.492188 37 Z M 2.492188 11 " clip-rule="nonzero"/></clipPath><clipPath id="4b168407bd"><path d="M 19 2.464844 L 32 2.464844 L 32 10 L 19 10 Z M 19 2.464844 " clip-rule="nonzero"/></clipPath><clipPath id="2d8463a1d9"><path d="M 9 2.464844 L 19 2.464844 L 19 10 L 9 10 Z M 9 2.464844 " clip-rule="nonzero"/></clipPath></defs><path fill="#ee6400" d="M 5.945312 33.53125 L 4.796875 33.53125 L 4.796875 34.683594 L 5.945312 34.683594 L 5.945312 33.53125 " fill-opacity="1" fill-rule="nonzero"/><path fill="#ee6400" d="M 8.246094 33.53125 L 7.097656 33.53125 L 7.097656 34.683594 L 8.246094 34.683594 L 8.246094 33.53125 " fill-opacity="1" fill-rule="nonzero"/><path fill="#ee6400" d="M 10.546875 33.53125 L 9.398438 33.53125 L 9.398438 34.683594 L 10.546875 34.683594 L 10.546875 33.53125 " fill-opacity="1" fill-rule="nonzero"/><path fill="#ee6400" d="M 24.355469 33.53125 L 23.207031 33.53125 L 23.207031 34.683594 L 24.355469 34.683594 L 24.355469 33.53125 " fill-opacity="1" fill-rule="nonzero"/><path fill="#ee6400" d="M 26.65625 33.53125 L 25.507812 33.53125 L 25.507812 34.683594 L 26.65625 34.683594 L 26.65625 33.53125 " fill-opacity="1" fill-rule="nonzero"/><path fill="#ee6400" d="M 28.957031 33.53125 L 27.808594 33.53125 L 27.808594 34.683594 L 28.957031 34.683594 L 28.957031 33.53125 " fill-opacity="1" fill-rule="nonzero"/><path fill="#ee6400" d="M 33.5625 33.53125 L 32.410156 33.53125 L 32.410156 34.683594 L 33.5625 34.683594 L 33.5625 33.53125 " fill-opacity="1" fill-rule="nonzero"/><g clip-path="url(#e5118413d6)"><path fill="#ee6400" d="M 35.285156 31.230469 L 31.257812 31.230469 L 31.257812 30.078125 L 35.285156 30.078125 C 35.605469 30.078125 35.863281 30.339844 35.863281 30.65625 C 35.863281 30.972656 35.605469 31.230469 35.285156 31.230469 Z M 34.710938 35.832031 L 31.257812 35.832031 L 31.257812 32.382812 L 34.710938 32.382812 Z M 31.257812 27.777344 L 34.710938 27.777344 L 34.710938 28.929688 L 31.257812 28.929688 Z M 30.109375 31.230469 L 22.054688 31.230469 L 22.054688 27.539062 L 30.109375 23.007812 Z M 30.109375 35.832031 L 22.054688 35.832031 L 22.054688 32.382812 L 30.109375 32.382812 Z M 21.769531 21.527344 C 21.59375 21.425781 21.375 21.425781 21.199219 21.523438 L 19.976562 22.210938 L 20.15625 16.847656 L 23.953125 16.847656 L 24.226562 25 L 22.054688 26.21875 L 22.054688 22.023438 C 22.054688 21.820312 21.945312 21.632812 21.769531 21.527344 Z M 20.902344 27.203125 L 20.902344 29.503906 L 12.847656 29.503906 L 12.847656 27.539062 L 20.902344 23.007812 Z M 20.902344 35.832031 L 18.601562 35.832031 L 18.601562 33.53125 C 18.601562 33.214844 18.34375 32.957031 18.027344 32.957031 L 15.726562 32.957031 C 15.410156 32.957031 15.152344 33.214844 15.152344 33.53125 L 15.152344 35.832031 L 12.847656 35.832031 L 12.847656 30.65625 L 20.902344 30.65625 Z M 17.453125 35.832031 L 16.300781 35.832031 L 16.300781 34.105469 L 17.453125 34.105469 Z M 12.5625 21.527344 C 12.390625 21.425781 12.171875 21.425781 11.992188 21.523438 L 10.1875 22.539062 L 10.375 16.847656 L 14.171875 16.847656 L 14.453125 25.316406 L 12.847656 26.21875 L 12.847656 22.023438 C 12.847656 21.820312 12.742188 21.632812 12.5625 21.527344 Z M 11.699219 27.203125 L 11.699219 31.230469 L 3.644531 31.230469 L 3.644531 27.539062 L 11.699219 23.007812 Z M 11.699219 35.832031 L 3.644531 35.832031 L 3.644531 32.382812 L 11.699219 32.382812 Z M 10.453125 14.546875 L 14.09375 14.546875 L 14.109375 14.960938 L 14.136719 15.695312 L 10.414062 15.695312 Z M 10.53125 12.246094 L 14.019531 12.246094 L 14.054688 13.394531 L 10.492188 13.394531 Z M 20.230469 14.65625 L 20.234375 14.546875 L 23.875 14.546875 L 23.882812 14.808594 L 23.914062 15.695312 L 20.195312 15.695312 Z M 20.3125 12.246094 L 23.796875 12.246094 L 23.835938 13.394531 L 20.273438 13.394531 Z M 35.863281 29.035156 L 35.863281 27.203125 C 35.863281 26.886719 35.605469 26.628906 35.285156 26.628906 L 31.257812 26.628906 L 31.257812 22.023438 C 31.257812 21.820312 31.152344 21.632812 30.972656 21.527344 C 30.800781 21.425781 30.582031 21.425781 30.402344 21.523438 L 25.355469 24.363281 L 24.929688 11.652344 C 24.921875 11.339844 24.667969 11.09375 24.355469 11.09375 L 19.753906 11.09375 C 19.441406 11.09375 19.1875 11.339844 19.179688 11.652344 L 18.804688 22.871094 L 15.585938 24.683594 L 15.152344 11.652344 C 15.140625 11.339844 14.886719 11.09375 14.574219 11.09375 L 9.972656 11.09375 C 9.664062 11.09375 9.410156 11.339844 9.398438 11.652344 L 9.246094 16.253906 L 9.011719 23.199219 L 2.789062 26.703125 C 2.605469 26.804688 2.492188 26.996094 2.492188 27.203125 L 2.492188 36.410156 C 2.492188 36.726562 2.753906 36.984375 3.070312 36.984375 L 35.285156 36.984375 C 35.605469 36.984375 35.863281 36.726562 35.863281 36.410156 L 35.863281 32.277344 C 36.53125 32.039062 37.011719 31.402344 37.011719 30.65625 C 37.011719 29.90625 36.53125 29.273438 35.863281 29.035156 " fill-opacity="1" fill-rule="nonzero"/></g><g clip-path="url(#4b168407bd)"><path fill="#ee6400" d="M 20.328125 7.640625 C 20.328125 6.6875 21.101562 5.917969 22.054688 5.917969 L 23.78125 5.917969 C 24.097656 5.917969 24.355469 5.65625 24.355469 5.339844 C 24.355469 4.386719 25.128906 3.613281 26.082031 3.613281 L 30.683594 3.613281 L 30.683594 4.765625 C 30.683594 5.71875 29.910156 6.492188 28.957031 6.492188 L 27.234375 6.492188 C 26.914062 6.492188 26.65625 6.75 26.65625 7.066406 C 26.65625 8.019531 25.882812 8.792969 24.929688 8.792969 L 20.328125 8.792969 Z M 19.753906 9.945312 L 24.929688 9.945312 C 26.320312 9.945312 27.480469 8.953125 27.75 7.640625 L 28.957031 7.640625 C 30.546875 7.640625 31.835938 6.351562 31.835938 4.765625 L 31.835938 3.039062 C 31.835938 2.722656 31.578125 2.464844 31.257812 2.464844 L 26.082031 2.464844 C 24.691406 2.464844 23.53125 3.453125 23.265625 4.765625 L 22.054688 4.765625 C 20.46875 4.765625 19.179688 6.054688 19.179688 7.640625 L 19.179688 9.367188 C 19.179688 9.683594 19.4375 9.945312 19.753906 9.945312 " fill-opacity="1" fill-rule="nonzero"/></g><g clip-path="url(#2d8463a1d9)"><path fill="#ee6400" d="M 10.546875 8.21875 C 10.546875 7.265625 11.320312 6.492188 12.273438 6.492188 C 12.589844 6.492188 12.847656 6.234375 12.847656 5.917969 L 12.847656 5.339844 C 12.847656 4.386719 13.621094 3.613281 14.574219 3.613281 L 17.453125 3.613281 L 17.453125 4.191406 C 17.453125 5.144531 16.679688 5.917969 15.726562 5.917969 C 15.410156 5.917969 15.152344 6.175781 15.152344 6.492188 L 15.152344 7.066406 C 15.152344 8.019531 14.378906 8.792969 13.425781 8.792969 L 10.546875 8.792969 Z M 9.972656 9.945312 L 13.425781 9.945312 C 15.011719 9.945312 16.300781 8.652344 16.300781 7.066406 L 16.300781 7.007812 C 17.613281 6.742188 18.601562 5.578125 18.601562 4.191406 L 18.601562 3.039062 C 18.601562 2.722656 18.34375 2.464844 18.027344 2.464844 L 14.574219 2.464844 C 12.988281 2.464844 11.699219 3.753906 11.699219 5.339844 L 11.699219 5.398438 C 10.386719 5.667969 9.398438 6.828125 9.398438 8.21875 L 9.398438 9.367188 C 9.398438 9.683594 9.65625 9.945312 9.972656 9.945312 " fill-opacity="1" fill-rule="nonzero"/></g></svg>