<svg xmlns="http://www.w3.org/2000/svg" xmlns:xlink="http://www.w3.org/1999/xlink" width="54" zoomAndPan="magnify" viewBox="0 0 40.5 39.749999" height="53" preserveAspectRatio="xMidYMid meet" version="1.0"><defs><clipPath id="e2604bc268"><path d="M 2.171875 16 L 29 16 L 29 37.949219 L 2.171875 37.949219 Z M 2.171875 16 " clip-rule="nonzero"/></clipPath><clipPath id="a2e82bed9a"><path d="M 26 1.648438 L 28 1.648438 L 28 6 L 26 6 Z M 26 1.648438 " clip-rule="nonzero"/></clipPath><clipPath id="8fb1855e8c"><path d="M 33 11 L 36.992188 11 L 36.992188 13 L 33 13 Z M 33 11 " clip-rule="nonzero"/></clipPath></defs><g clip-path="url(#e2604bc268)"><path fill="#ee6400" d="M 22.207031 17.796875 C 21.851562 17.019531 20.902344 16.410156 20.046875 16.410156 L 3.59375 16.410156 C 3.144531 16.410156 2.746094 16.59375 2.503906 16.910156 C 2.257812 17.230469 2.1875 17.660156 2.304688 18.09375 L 5.894531 31.171875 C 6.128906 32.019531 7 32.683594 7.878906 32.683594 L 12.292969 32.683594 L 12.292969 34.960938 L 10.964844 34.960938 C 10.78125 34.960938 10.636719 35.109375 10.636719 35.289062 L 10.636719 37.433594 C 10.636719 37.613281 10.78125 37.761719 10.964844 37.761719 L 20.304688 37.761719 C 20.484375 37.761719 20.632812 37.613281 20.632812 37.433594 L 20.632812 35.289062 C 20.632812 35.109375 20.484375 34.960938 20.304688 34.960938 L 18.972656 34.960938 L 18.972656 32.683594 L 27.1875 32.683594 C 27.648438 32.683594 28.03125 32.5 28.234375 32.179688 C 28.441406 31.859375 28.449219 31.4375 28.257812 31.019531 Z M 18.644531 32.023438 L 13.792969 32.023438 L 12.328125 27.441406 L 19.375 27.441406 L 21.230469 32.023438 Z M 12.117188 26.785156 L 10.523438 21.804688 L 17.089844 21.804688 L 19.109375 26.785156 Z M 4.007812 21.804688 L 9.832031 21.804688 L 11.425781 26.785156 L 5.375 26.785156 Z M 15.167969 17.066406 L 16.824219 21.148438 L 10.3125 21.148438 L 9.003906 17.066406 Z M 17.800781 21.804688 L 23.320312 21.804688 L 25.597656 26.785156 L 19.816406 26.785156 Z M 21.609375 18.070312 L 23.015625 21.148438 L 17.53125 21.148438 L 15.878906 17.066406 L 20.042969 17.066406 C 20.644531 17.066406 21.359375 17.527344 21.609375 18.070312 Z M 3.027344 17.308594 C 3.144531 17.152344 3.347656 17.066406 3.59375 17.066406 L 8.3125 17.066406 L 9.621094 21.148438 L 3.828125 21.148438 L 2.941406 17.921875 C 2.875 17.683594 2.90625 17.46875 3.027344 17.308594 Z M 6.53125 30.996094 L 5.554688 27.441406 L 11.636719 27.441406 L 13.105469 32.023438 L 7.878906 32.023438 C 7.300781 32.023438 6.683594 31.554688 6.53125 30.996094 Z M 19.972656 37.105469 L 11.292969 37.105469 L 11.292969 35.617188 L 19.972656 35.617188 Z M 18.316406 34.960938 L 12.953125 34.960938 L 12.953125 32.683594 L 18.316406 32.683594 Z M 27.679688 31.824219 C 27.597656 31.953125 27.421875 32.023438 27.1875 32.023438 L 21.941406 32.023438 L 20.085938 27.441406 L 25.898438 27.441406 L 27.660156 31.292969 C 27.757812 31.507812 27.765625 31.695312 27.679688 31.824219 Z M 27.679688 31.824219 " fill-opacity="1" fill-rule="nonzero"/></g><path fill="#ee6400" d="M 27.027344 8.042969 C 24.820312 8.042969 23.023438 9.839844 23.023438 12.046875 C 23.023438 14.253906 24.820312 16.050781 27.027344 16.050781 C 29.234375 16.050781 31.03125 14.253906 31.03125 12.046875 C 31.03125 9.839844 29.234375 8.042969 27.027344 8.042969 Z M 27.027344 15.390625 C 25.183594 15.390625 23.679688 13.890625 23.679688 12.046875 C 23.679688 10.203125 25.183594 8.703125 27.027344 8.703125 C 28.871094 8.703125 30.371094 10.203125 30.371094 12.046875 C 30.371094 13.890625 28.871094 15.390625 27.027344 15.390625 Z M 27.027344 15.390625 " fill-opacity="1" fill-rule="nonzero"/><g clip-path="url(#a2e82bed9a)"><path fill="#ee6400" d="M 27.027344 5.742188 C 27.207031 5.742188 27.355469 5.59375 27.355469 5.414062 L 27.355469 2.042969 C 27.355469 1.863281 27.207031 1.714844 27.027344 1.714844 C 26.84375 1.714844 26.699219 1.863281 26.699219 2.042969 L 26.699219 5.414062 C 26.699219 5.59375 26.84375 5.742188 27.027344 5.742188 Z M 27.027344 5.742188 " fill-opacity="1" fill-rule="nonzero"/></g><g clip-path="url(#8fb1855e8c)"><path fill="#ee6400" d="M 37.03125 11.71875 L 33.660156 11.71875 C 33.480469 11.71875 33.332031 11.863281 33.332031 12.046875 C 33.332031 12.230469 33.480469 12.375 33.660156 12.375 L 37.03125 12.375 C 37.210938 12.375 37.359375 12.230469 37.359375 12.046875 C 37.359375 11.863281 37.210938 11.71875 37.03125 11.71875 Z M 37.03125 11.71875 " fill-opacity="1" fill-rule="nonzero"/></g><path fill="#ee6400" d="M 22.101562 7.589844 C 22.167969 7.652344 22.25 7.683594 22.335938 7.683594 C 22.421875 7.683594 22.503906 7.652344 22.570312 7.589844 C 22.695312 7.460938 22.695312 7.25 22.570312 7.121094 L 20.1875 4.742188 C 20.058594 4.613281 19.851562 4.613281 19.722656 4.742188 C 19.59375 4.871094 19.59375 5.078125 19.722656 5.207031 Z M 22.101562 7.589844 " fill-opacity="1" fill-rule="nonzero"/><path fill="#ee6400" d="M 17.023438 12.375 L 20.394531 12.375 C 20.574219 12.375 20.722656 12.226562 20.722656 12.046875 C 20.722656 11.863281 20.574219 11.71875 20.394531 11.71875 L 17.023438 11.71875 C 16.84375 11.71875 16.695312 11.863281 16.695312 12.046875 C 16.695312 12.226562 16.84375 12.375 17.023438 12.375 Z M 17.023438 12.375 " fill-opacity="1" fill-rule="nonzero"/><path fill="#ee6400" d="M 27.355469 22.046875 L 27.355469 18.679688 C 27.355469 18.5 27.207031 18.351562 27.027344 18.351562 C 26.84375 18.351562 26.699219 18.5 26.699219 18.679688 L 26.699219 22.046875 C 26.699219 22.230469 26.84375 22.378906 27.027344 22.378906 C 27.207031 22.378906 27.355469 22.230469 27.355469 22.046875 Z M 27.355469 22.046875 " fill-opacity="1" fill-rule="nonzero"/><path fill="#ee6400" d="M 31.949219 16.503906 C 31.820312 16.375 31.613281 16.375 31.484375 16.503906 C 31.355469 16.632812 31.355469 16.839844 31.484375 16.96875 L 33.867188 19.351562 C 33.929688 19.414062 34.015625 19.449219 34.097656 19.449219 C 34.183594 19.449219 34.265625 19.414062 34.332031 19.351562 C 34.460938 19.222656 34.460938 19.015625 34.332031 18.886719 Z M 31.949219 16.503906 " fill-opacity="1" fill-rule="nonzero"/><path fill="#ee6400" d="M 31.71875 7.683594 C 31.800781 7.683594 31.886719 7.652344 31.949219 7.589844 L 34.332031 5.207031 C 34.460938 5.078125 34.460938 4.871094 34.332031 4.742188 C 34.203125 4.613281 33.996094 4.613281 33.867188 4.742188 L 31.484375 7.121094 C 31.355469 7.25 31.355469 7.460938 31.484375 7.589844 C 31.550781 7.652344 31.632812 7.683594 31.71875 7.683594 Z M 31.71875 7.683594 " fill-opacity="1" fill-rule="nonzero"/><path fill="#ee6400" d="M 9.640625 10.570312 L 12.378906 10.375 L 11.367188 15.445312 C 11.335938 15.605469 11.425781 15.765625 11.578125 15.820312 C 11.613281 15.832031 11.652344 15.839844 11.691406 15.839844 C 11.808594 15.839844 11.917969 15.777344 11.976562 15.667969 L 15.917969 8.492188 C 15.972656 8.390625 15.972656 8.265625 15.910156 8.164062 C 15.851562 8.0625 15.742188 8.007812 15.621094 8.007812 L 12.90625 8.0625 L 13.808594 5.070312 C 13.855469 4.914062 13.785156 4.75 13.640625 4.679688 C 13.5 4.609375 13.324219 4.648438 13.230469 4.777344 L 9.351562 10.046875 C 9.277344 10.152344 9.265625 10.289062 9.328125 10.402344 C 9.390625 10.515625 9.515625 10.578125 9.640625 10.570312 Z M 12.628906 6.707031 L 12.144531 8.304688 C 12.117188 8.40625 12.136719 8.515625 12.199219 8.597656 C 12.261719 8.683594 12.363281 8.730469 12.46875 8.730469 L 15.066406 8.675781 L 12.429688 13.476562 L 13.109375 10.082031 C 13.128906 9.980469 13.101562 9.875 13.035156 9.800781 C 12.972656 9.726562 12.878906 9.6875 12.785156 9.6875 C 12.777344 9.6875 12.769531 9.6875 12.761719 9.6875 L 10.304688 9.863281 Z M 12.628906 6.707031 " fill-opacity="1" fill-rule="nonzero"/></svg>