<svg xmlns="http://www.w3.org/2000/svg" xmlns:xlink="http://www.w3.org/1999/xlink" width="54" zoomAndPan="magnify" viewBox="0 0 40.5 39.749999" height="53" preserveAspectRatio="xMidYMid meet" version="1.0"><defs><clipPath id="def1a9d271"><path d="M 14 0.117188 L 28 0.117188 L 28 5 L 14 5 Z M 14 0.117188 " clip-rule="nonzero"/></clipPath><clipPath id="b50f2fbd4d"><path d="M 11 0.117188 L 16 0.117188 L 16 5 L 11 5 Z M 11 0.117188 " clip-rule="nonzero"/></clipPath><clipPath id="cdf75e1ad8"><path d="M 26 0.117188 L 31 0.117188 L 31 5 L 26 5 Z M 26 0.117188 " clip-rule="nonzero"/></clipPath><clipPath id="cb99dd11aa"><path d="M 34 9 L 38.726562 9 L 38.726562 22 L 34 22 Z M 34 9 " clip-rule="nonzero"/></clipPath><clipPath id="43d61cae9f"><path d="M 0.941406 24 L 13 24 L 13 29 L 0.941406 29 Z M 0.941406 24 " clip-rule="nonzero"/></clipPath><clipPath id="cae766e24c"><path d="M 3 30 L 10 30 L 10 38.644531 L 3 38.644531 Z M 3 30 " clip-rule="nonzero"/></clipPath></defs><path fill="#ee6400" d="M 3.511719 25.425781 C 3.234375 25.425781 3.007812 25.199219 3.007812 24.921875 L 3.007812 16.378906 C 3.007812 13.796875 5.109375 11.695312 7.695312 11.695312 L 16.097656 11.695312 C 16.488281 11.21875 16.941406 10.804688 17.449219 10.464844 L 17.449219 7.394531 C 17.449219 7.117188 17.675781 6.890625 17.953125 6.890625 L 23.789062 6.890625 C 24.070312 6.890625 24.292969 7.117188 24.292969 7.394531 L 24.292969 10.464844 C 24.804688 10.804688 25.257812 11.21875 25.648438 11.695312 L 34.886719 11.695312 C 35.164062 11.695312 35.390625 11.917969 35.390625 12.199219 C 35.390625 12.476562 35.164062 12.703125 34.886719 12.703125 L 25.402344 12.703125 C 25.242188 12.703125 25.09375 12.628906 25 12.5 C 24.597656 11.964844 24.101562 11.519531 23.53125 11.175781 C 23.378906 11.082031 23.285156 10.917969 23.285156 10.742188 L 23.285156 7.898438 L 18.457031 7.898438 L 18.457031 10.742188 C 18.457031 10.917969 18.367188 11.082031 18.214844 11.175781 C 17.640625 11.519531 17.148438 11.964844 16.746094 12.5 C 16.652344 12.625 16.5 12.703125 16.34375 12.703125 L 7.695312 12.703125 C 5.667969 12.703125 4.015625 14.351562 4.015625 16.378906 L 4.015625 24.921875 C 4.015625 25.199219 3.789062 25.425781 3.511719 25.425781 Z M 10.308594 25.425781 C 10.589844 25.425781 10.8125 25.199219 10.8125 24.921875 L 10.8125 23.179688 C 10.8125 21.148438 12.464844 19.5 14.492188 19.5 L 16.097656 19.5 C 17.273438 20.941406 19 21.761719 20.871094 21.761719 C 22.746094 21.761719 24.46875 20.941406 25.648438 19.5 L 34.886719 19.5 C 35.164062 19.5 35.390625 19.273438 35.390625 18.996094 C 35.390625 18.71875 35.164062 18.492188 34.886719 18.492188 L 25.402344 18.492188 C 25.242188 18.492188 25.09375 18.566406 25 18.691406 C 24.015625 20.003906 22.511719 20.753906 20.871094 20.753906 C 19.234375 20.753906 17.730469 20.003906 16.746094 18.691406 C 16.648438 18.566406 16.5 18.492188 16.34375 18.492188 L 14.492188 18.492188 C 11.910156 18.492188 9.804688 20.59375 9.804688 23.179688 L 9.804688 24.921875 C 9.804688 25.199219 10.03125 25.425781 10.308594 25.425781 Z M 10.308594 25.425781 " fill-opacity="1" fill-rule="evenodd"/><path fill="#ee6400" d="M 19.03125 7.898438 C 18.753906 7.898438 18.527344 7.671875 18.527344 7.394531 L 18.527344 3.410156 C 18.527344 3.132812 18.753906 2.90625 19.03125 2.90625 C 19.308594 2.90625 19.535156 3.132812 19.535156 3.410156 L 19.535156 7.394531 C 19.535156 7.671875 19.308594 7.898438 19.03125 7.898438 Z M 22.714844 7.898438 C 22.433594 7.898438 22.210938 7.671875 22.210938 7.394531 L 22.210938 3.410156 C 22.210938 3.132812 22.433594 2.90625 22.714844 2.90625 C 22.992188 2.90625 23.21875 3.132812 23.21875 3.410156 L 23.21875 7.394531 C 23.21875 7.671875 22.992188 7.898438 22.714844 7.898438 Z M 22.714844 7.898438 " fill-opacity="1" fill-rule="evenodd"/><g clip-path="url(#def1a9d271)"><path fill="#ee6400" d="M 26.921875 2.019531 L 22.453125 2.019531 C 22.273438 2.019531 22.109375 1.929688 22.019531 1.777344 C 21.773438 1.371094 21.347656 1.125 20.871094 1.125 C 20.398438 1.125 19.96875 1.371094 19.726562 1.777344 C 19.636719 1.929688 19.472656 2.019531 19.292969 2.019531 L 14.824219 2.019531 C 14.546875 2.019531 14.320312 1.796875 14.320312 1.515625 C 14.320312 1.238281 14.546875 1.011719 14.824219 1.011719 L 19.03125 1.011719 C 19.472656 0.457031 20.152344 0.117188 20.871094 0.117188 C 21.589844 0.117188 22.273438 0.457031 22.714844 1.011719 L 26.921875 1.011719 C 27.199219 1.011719 27.425781 1.238281 27.425781 1.515625 C 27.425781 1.796875 27.199219 2.019531 26.921875 2.019531 Z M 20.871094 4.808594 C 20.152344 4.808594 19.472656 4.472656 19.03125 3.914062 L 14.824219 3.914062 C 14.546875 3.914062 14.320312 3.6875 14.320312 3.410156 C 14.320312 3.132812 14.546875 2.90625 14.824219 2.90625 L 19.292969 2.90625 C 19.472656 2.90625 19.632812 3 19.726562 3.152344 C 19.96875 3.558594 20.398438 3.800781 20.871094 3.800781 C 21.347656 3.800781 21.773438 3.558594 22.019531 3.152344 C 22.109375 3 22.273438 2.90625 22.449219 2.90625 L 26.921875 2.90625 C 27.199219 2.90625 27.425781 3.132812 27.425781 3.410156 C 27.425781 3.6875 27.199219 3.914062 26.921875 3.914062 L 22.714844 3.914062 C 22.273438 4.472656 21.589844 4.808594 20.871094 4.808594 Z M 20.871094 4.808594 " fill-opacity="1" fill-rule="evenodd"/></g><g clip-path="url(#b50f2fbd4d)"><path fill="#ee6400" d="M 13.300781 1.175781 C 12.589844 1.175781 12.011719 1.753906 12.011719 2.464844 C 12.011719 3.175781 12.589844 3.753906 13.300781 3.753906 C 14.011719 3.753906 14.589844 3.175781 14.589844 2.464844 C 14.589844 1.753906 14.011719 1.175781 13.300781 1.175781 Z M 13.300781 4.761719 C 12.035156 4.761719 11.003906 3.730469 11.003906 2.464844 C 11.003906 1.195312 12.035156 0.167969 13.300781 0.167969 C 14.566406 0.167969 15.597656 1.195312 15.597656 2.464844 C 15.597656 3.730469 14.566406 4.761719 13.300781 4.761719 Z M 13.300781 4.761719 " fill-opacity="1" fill-rule="evenodd"/></g><g clip-path="url(#cdf75e1ad8)"><path fill="#ee6400" d="M 28.445312 1.175781 C 27.734375 1.175781 27.15625 1.753906 27.15625 2.464844 C 27.15625 3.175781 27.734375 3.753906 28.445312 3.753906 C 29.15625 3.753906 29.734375 3.175781 29.734375 2.464844 C 29.734375 1.753906 29.15625 1.175781 28.445312 1.175781 Z M 28.445312 4.761719 C 27.175781 4.761719 26.148438 3.730469 26.148438 2.464844 C 26.148438 1.195312 27.175781 0.167969 28.445312 0.167969 C 29.710938 0.167969 30.742188 1.195312 30.742188 2.464844 C 30.742188 3.730469 29.710938 4.761719 28.445312 4.761719 Z M 28.445312 4.761719 " fill-opacity="1" fill-rule="evenodd"/></g><g clip-path="url(#cb99dd11aa)"><path fill="#ee6400" d="M 36.472656 10.640625 C 35.875 10.640625 35.390625 11.125 35.390625 11.71875 L 35.390625 19.472656 C 35.390625 20.070312 35.875 20.554688 36.472656 20.554688 C 37.066406 20.554688 37.550781 20.070312 37.550781 19.472656 L 37.550781 11.71875 C 37.550781 11.125 37.066406 10.640625 36.472656 10.640625 Z M 36.472656 21.5625 C 35.320312 21.5625 34.382812 20.625 34.382812 19.472656 L 34.382812 11.71875 C 34.382812 10.566406 35.320312 9.628906 36.472656 9.628906 C 37.621094 9.628906 38.558594 10.566406 38.558594 11.71875 L 38.558594 19.472656 C 38.558594 20.625 37.621094 21.5625 36.472656 21.5625 Z M 36.472656 21.5625 " fill-opacity="1" fill-rule="evenodd"/></g><g clip-path="url(#43d61cae9f)"><path fill="#ee6400" d="M 3.035156 25.425781 C 2.4375 25.425781 1.953125 25.910156 1.953125 26.503906 C 1.953125 27.101562 2.4375 27.585938 3.035156 27.585938 L 10.789062 27.585938 C 11.382812 27.585938 11.867188 27.101562 11.867188 26.503906 C 11.867188 25.910156 11.382812 25.425781 10.789062 25.425781 Z M 10.789062 28.59375 L 3.035156 28.59375 C 1.882812 28.59375 0.945312 27.65625 0.945312 26.503906 C 0.945312 25.351562 1.882812 24.417969 3.035156 24.417969 L 10.789062 24.417969 C 11.941406 24.417969 12.875 25.351562 12.875 26.503906 C 12.875 27.65625 11.941406 28.59375 10.789062 28.59375 Z M 10.789062 28.59375 " fill-opacity="1" fill-rule="evenodd"/></g><g clip-path="url(#cae766e24c)"><path fill="#ee6400" d="M 6.910156 31.417969 C 6.414062 32.089844 5.5625 33.335938 5.121094 34.578125 C 4.679688 35.804688 4.847656 36.785156 5.589844 37.335938 C 6.324219 37.886719 7.480469 37.890625 8.222656 37.347656 C 8.960938 36.808594 9.140625 35.851562 8.726562 34.648438 C 8.289062 33.378906 7.417969 32.097656 6.910156 31.417969 Z M 6.914062 38.757812 C 6.222656 38.757812 5.53125 38.554688 4.984375 38.144531 C 4.460938 37.753906 3.332031 36.585938 4.171875 34.238281 C 4.878906 32.253906 6.457031 30.355469 6.523438 30.273438 C 6.621094 30.160156 6.761719 30.09375 6.910156 30.09375 C 7.058594 30.09375 7.203125 30.160156 7.296875 30.273438 C 7.367188 30.359375 8.984375 32.304688 9.679688 34.320312 C 10.480469 36.636719 9.339844 37.777344 8.816406 38.164062 C 8.269531 38.558594 7.59375 38.757812 6.914062 38.757812 Z M 6.914062 38.757812 " fill-opacity="1" fill-rule="evenodd"/></g></svg>