<svg xmlns="http://www.w3.org/2000/svg" xmlns:xlink="http://www.w3.org/1999/xlink" width="54" zoomAndPan="magnify" viewBox="0 0 40.5 39.749999" height="53" preserveAspectRatio="xMidYMid meet" version="1.0"><defs><clipPath id="30af1eefb2"><path d="M 1.066406 0.117188 L 38.109375 0.117188 L 38.109375 37.160156 L 1.066406 37.160156 Z M 1.066406 0.117188 " clip-rule="nonzero"/></clipPath></defs><g clip-path="url(#30af1eefb2)"><path fill="#ee6400" d="M 37.839844 9.765625 L 33.019531 9.765625 L 33.019531 7.351562 L 33.621094 7.351562 C 33.789062 7.351562 33.929688 7.292969 34.046875 7.175781 C 34.164062 7.058594 34.222656 6.917969 34.222656 6.75 L 34.222656 5.542969 L 36.636719 5.542969 C 36.800781 5.542969 36.945312 5.484375 37.0625 5.367188 C 37.179688 5.25 37.238281 5.109375 37.238281 4.941406 L 37.238281 0.117188 L 36.03125 0.117188 L 36.03125 4.339844 L 34.222656 4.339844 L 34.222656 3.132812 C 34.222656 2.96875 34.164062 2.824219 34.046875 2.707031 C 33.929688 2.589844 33.789062 2.53125 33.621094 2.53125 L 22.769531 2.53125 C 22.601562 2.53125 22.460938 2.589844 22.34375 2.707031 C 22.226562 2.824219 22.167969 2.96875 22.167969 3.132812 L 22.167969 6.75 C 22.167969 6.917969 22.226562 7.058594 22.34375 7.175781 C 22.460938 7.292969 22.601562 7.351562 22.769531 7.351562 L 23.371094 7.351562 L 23.371094 9.765625 L 1.667969 9.765625 C 1.5 9.765625 1.359375 9.824219 1.242188 9.941406 C 1.125 10.058594 1.066406 10.203125 1.066406 10.367188 L 1.066406 34.484375 C 1.066406 34.648438 1.125 34.792969 1.242188 34.910156 C 1.359375 35.027344 1.5 35.085938 1.667969 35.085938 L 2.269531 35.085938 L 2.269531 36.894531 C 2.269531 37.0625 2.328125 37.203125 2.449219 37.320312 C 2.566406 37.4375 2.707031 37.496094 2.875 37.496094 L 7.695312 37.496094 C 7.863281 37.496094 8.003906 37.4375 8.125 37.320312 C 8.242188 37.203125 8.300781 37.0625 8.300781 36.894531 L 8.300781 35.085938 L 31.210938 35.085938 L 31.210938 36.894531 C 31.210938 37.0625 31.269531 37.203125 31.386719 37.320312 C 31.503906 37.4375 31.644531 37.496094 31.8125 37.496094 L 36.636719 37.496094 C 36.800781 37.496094 36.945312 37.4375 37.0625 37.320312 C 37.179688 37.203125 37.238281 37.0625 37.238281 36.894531 L 37.238281 35.085938 L 37.839844 35.085938 C 38.007812 35.085938 38.148438 35.027344 38.265625 34.910156 C 38.386719 34.792969 38.445312 34.648438 38.445312 34.484375 L 38.445312 10.367188 C 38.445312 10.203125 38.386719 10.058594 38.265625 9.941406 C 38.148438 9.824219 38.007812 9.765625 37.839844 9.765625 Z M 23.371094 3.734375 L 33.019531 3.734375 L 33.019531 6.148438 L 23.371094 6.148438 Z M 31.8125 7.351562 L 31.8125 9.765625 L 24.578125 9.765625 L 24.578125 7.351562 Z M 7.09375 36.292969 L 3.476562 36.292969 L 3.476562 35.085938 L 7.09375 35.085938 Z M 36.03125 36.292969 L 32.414062 36.292969 L 32.414062 35.085938 L 36.03125 35.085938 Z M 37.238281 33.878906 L 2.269531 33.878906 L 2.269531 32.675781 L 37.238281 32.675781 Z M 7.09375 26.644531 L 4.683594 26.644531 L 4.683594 25.441406 L 7.09375 25.441406 Z M 7.09375 18.808594 L 4.683594 18.808594 L 4.683594 17.601562 L 7.09375 17.601562 Z M 8.300781 31.46875 L 8.300781 13.382812 L 17.945312 13.382812 L 17.945312 31.46875 Z M 19.152344 31.46875 L 19.152344 13.382812 L 20.355469 13.382812 L 20.355469 31.46875 Z M 21.5625 31.46875 L 21.5625 13.382812 L 34.828125 13.382812 L 34.828125 31.46875 Z M 37.238281 31.46875 L 36.03125 31.46875 L 36.03125 12.78125 C 36.03125 12.613281 35.972656 12.472656 35.855469 12.351562 C 35.738281 12.234375 35.597656 12.175781 35.429688 12.175781 L 7.695312 12.175781 C 7.53125 12.175781 7.386719 12.234375 7.269531 12.351562 C 7.152344 12.472656 7.09375 12.613281 7.09375 12.78125 L 7.09375 16.398438 L 4.078125 16.398438 C 3.914062 16.398438 3.769531 16.457031 3.652344 16.574219 C 3.535156 16.691406 3.476562 16.832031 3.476562 17 L 3.476562 19.410156 C 3.476562 19.578125 3.535156 19.71875 3.652344 19.835938 C 3.769531 19.953125 3.914062 20.015625 4.078125 20.015625 L 7.09375 20.015625 L 7.09375 24.234375 L 4.078125 24.234375 C 3.914062 24.234375 3.769531 24.292969 3.652344 24.410156 C 3.535156 24.527344 3.476562 24.671875 3.476562 24.835938 L 3.476562 27.25 C 3.476562 27.414062 3.535156 27.558594 3.652344 27.675781 C 3.769531 27.792969 3.914062 27.851562 4.078125 27.851562 L 7.09375 27.851562 L 7.09375 31.46875 L 2.269531 31.46875 L 2.269531 10.96875 L 37.238281 10.96875 Z M 37.238281 31.46875 " fill-opacity="1" fill-rule="nonzero"/></g><path fill="#ee6400" d="M 24.988281 20.015625 L 26.308594 20.453125 L 25.785156 23.535156 C 25.761719 23.667969 25.78125 23.796875 25.847656 23.914062 C 25.910156 24.035156 26.003906 24.125 26.125 24.179688 C 26.25 24.238281 26.375 24.25 26.507812 24.222656 C 26.640625 24.195312 26.75 24.128906 26.839844 24.027344 L 30.457031 19.808594 C 30.59375 19.644531 30.632812 19.460938 30.578125 19.253906 C 30.519531 19.050781 30.390625 18.914062 30.191406 18.84375 L 29.21875 18.519531 L 31.667969 15.582031 C 31.835938 15.386719 31.863281 15.171875 31.757812 14.9375 C 31.648438 14.703125 31.464844 14.589844 31.210938 14.589844 L 27.59375 14.589844 C 27.355469 14.589844 27.183594 14.691406 27.066406 14.894531 L 24.65625 19.117188 C 24.5625 19.28125 24.550781 19.453125 24.621094 19.628906 C 24.679688 19.816406 24.800781 19.945312 24.988281 20.015625 Z M 27.941406 15.792969 L 29.917969 15.792969 L 27.730469 18.421875 C 27.59375 18.585938 27.554688 18.773438 27.617188 18.976562 C 27.675781 19.179688 27.804688 19.3125 28 19.378906 L 28.960938 19.699219 L 27.339844 21.597656 L 27.59375 20.117188 C 27.617188 19.96875 27.589844 19.835938 27.511719 19.707031 C 27.4375 19.582031 27.328125 19.492188 27.1875 19.445312 L 26.074219 19.074219 Z M 27.941406 15.792969 " fill-opacity="1" fill-rule="nonzero"/><path fill="#ee6400" d="M 22.769531 26.644531 L 33.621094 26.644531 L 33.621094 27.851562 L 22.769531 27.851562 Z M 22.769531 26.644531 " fill-opacity="1" fill-rule="nonzero"/><path fill="#ee6400" d="M 22.769531 29.058594 L 33.621094 29.058594 L 33.621094 30.261719 L 22.769531 30.261719 Z M 22.769531 29.058594 " fill-opacity="1" fill-rule="nonzero"/><path fill="#ee6400" d="M 16.136719 14.589844 L 10.109375 14.589844 C 9.941406 14.589844 9.800781 14.648438 9.683594 14.765625 C 9.566406 14.882812 9.503906 15.023438 9.503906 15.191406 L 9.503906 18.808594 C 9.503906 18.972656 9.566406 19.117188 9.683594 19.234375 C 9.800781 19.351562 9.941406 19.410156 10.109375 19.410156 L 16.136719 19.410156 C 16.304688 19.410156 16.445312 19.351562 16.5625 19.234375 C 16.679688 19.117188 16.738281 18.972656 16.738281 18.808594 L 16.738281 15.191406 C 16.738281 15.023438 16.679688 14.882812 16.5625 14.765625 C 16.445312 14.648438 16.304688 14.589844 16.136719 14.589844 Z M 15.535156 18.207031 L 10.710938 18.207031 L 10.710938 15.792969 L 15.535156 15.792969 Z M 15.535156 18.207031 " fill-opacity="1" fill-rule="nonzero"/><path fill="#ee6400" d="M 9.503906 26.644531 L 16.738281 26.644531 L 16.738281 27.851562 L 9.503906 27.851562 Z M 9.503906 26.644531 " fill-opacity="1" fill-rule="nonzero"/><path fill="#ee6400" d="M 9.503906 24.234375 L 16.738281 24.234375 L 16.738281 25.441406 L 9.503906 25.441406 Z M 9.503906 24.234375 " fill-opacity="1" fill-rule="nonzero"/><path fill="#ee6400" d="M 9.503906 29.058594 L 11.917969 29.058594 L 11.917969 30.261719 L 9.503906 30.261719 Z M 9.503906 29.058594 " fill-opacity="1" fill-rule="nonzero"/><path fill="#ee6400" d="M 14.328125 29.058594 L 16.738281 29.058594 L 16.738281 30.261719 L 14.328125 30.261719 Z M 14.328125 29.058594 " fill-opacity="1" fill-rule="nonzero"/></svg>