<svg xmlns="http://www.w3.org/2000/svg" xmlns:xlink="http://www.w3.org/1999/xlink" width="54" zoomAndPan="magnify" viewBox="0 0 40.5 39.749999" height="53" preserveAspectRatio="xMidYMid meet" version="1.0"><defs><clipPath id="9c2b919387"><path d="M 0 5 L 36 5 L 36 38.222656 L 0 38.222656 Z M 0 5 " clip-rule="nonzero"/></clipPath><clipPath id="899befa22e"><path d="M 29 1.179688 L 31 1.179688 L 31 5 L 29 5 Z M 29 1.179688 " clip-rule="nonzero"/></clipPath><clipPath id="4118e7f6b1"><path d="M 36 10 L 39.265625 10 L 39.265625 14 L 36 14 Z M 36 10 " clip-rule="nonzero"/></clipPath></defs><path fill="#ee6400" d="M 12.519531 22.582031 C 13.796875 22.582031 14.828125 21.550781 14.828125 20.273438 C 14.828125 18.996094 13.796875 17.960938 12.519531 17.960938 C 11.242188 17.960938 10.207031 18.996094 10.207031 20.273438 C 10.207031 21.550781 11.242188 22.582031 12.519531 22.582031 Z M 12.519531 19.179688 C 13.125 19.179688 13.613281 19.664062 13.613281 20.273438 C 13.613281 20.878906 13.125 21.367188 12.519531 21.367188 C 11.910156 21.367188 11.425781 20.878906 11.425781 20.273438 C 11.425781 19.664062 11.910156 19.179688 12.519531 19.179688 Z M 12.519531 19.179688 " fill-opacity="1" fill-rule="nonzero"/><g clip-path="url(#9c2b919387)"><path fill="#ee6400" d="M 29.484375 5.316406 C 26.015625 5.679688 22.976562 9.875 26.867188 14.617188 C 27.355469 15.226562 27.597656 15.53125 27.660156 16.746094 L 26.6875 16.746094 C 26.320312 16.746094 26.078125 16.988281 26.078125 17.355469 L 26.078125 19.359375 C 26.078125 19.726562 26.320312 19.96875 26.6875 19.96875 L 28.265625 19.96875 L 28.265625 21.246094 C 28.265625 21.609375 28.507812 21.851562 28.875 21.851562 L 29.421875 21.851562 L 29.421875 31.277344 C 29.421875 32.917969 28.085938 34.257812 26.441406 34.257812 L 22.613281 34.257812 L 22.613281 22.703125 C 23.339844 22.703125 23.949219 22.339844 24.253906 21.730469 C 24.800781 20.820312 24.496094 19.664062 23.585938 19.117188 L 13.613281 11.273438 C 13.066406 10.847656 12.03125 10.910156 11.546875 11.273438 L 8.019531 14.011719 L 8.019531 11.636719 C 8.019531 11.273438 7.777344 11.03125 7.410156 11.03125 L 3.886719 11.03125 C 3.519531 11.03125 3.277344 11.273438 3.277344 11.636719 L 3.277344 17.476562 C 3.277344 17.535156 3.277344 17.597656 3.277344 17.597656 L 1.332031 19.117188 C 0.417969 19.664062 0.117188 20.820312 0.664062 21.730469 C 1.027344 22.339844 1.636719 22.703125 2.304688 22.703125 L 2.304688 37.660156 C 2.304688 38.027344 2.546875 38.269531 2.914062 38.269531 L 22.003906 38.269531 C 22.367188 38.269531 22.613281 38.027344 22.613281 37.660156 L 22.613281 35.472656 L 26.441406 35.472656 C 28.753906 35.472656 30.636719 33.589844 30.636719 31.277344 L 30.636719 21.792969 L 31.183594 21.792969 C 31.550781 21.792969 31.792969 21.550781 31.792969 21.183594 L 31.792969 19.90625 L 33.375 19.90625 C 33.738281 19.90625 33.980469 19.664062 33.980469 19.300781 L 33.980469 17.292969 C 33.980469 16.929688 33.738281 16.683594 33.375 16.683594 L 32.402344 16.683594 C 32.402344 15.347656 32.644531 15.105469 33.128906 14.558594 C 37.570312 9.875 33.800781 4.828125 29.484375 5.316406 Z M 4.492188 12.1875 L 6.804688 12.1875 L 6.804688 14.859375 L 4.492188 16.683594 Z M 1.757812 21.125 C 1.515625 20.820312 1.636719 20.332031 2 20.152344 C 2.0625 20.089844 1.9375 20.210938 12.277344 12.246094 C 12.457031 12.125 12.761719 12.125 12.945312 12.246094 L 22.914062 20.089844 C 23.402344 20.453125 23.464844 20.757812 23.21875 21.125 C 22.914062 21.671875 22.492188 21.425781 22.1875 21.367188 L 12.945312 13.949219 C 12.703125 13.765625 12.398438 13.765625 12.214844 13.949219 C 10.027344 15.652344 3.582031 20.757812 2.609375 21.425781 C 2.304688 21.550781 1.878906 21.425781 1.757812 21.125 Z M 21.457031 37.054688 L 3.582031 37.054688 L 3.582031 22.277344 L 12.578125 15.226562 L 21.457031 22.277344 L 21.457031 34.257812 L 13.125 34.257812 L 13.125 31.277344 C 14.28125 30.972656 15.195312 29.816406 15.4375 28.664062 L 15.5 28.664062 C 15.863281 28.664062 16.105469 28.417969 16.105469 28.054688 C 16.105469 27.691406 15.863281 27.445312 15.5 27.445312 L 14.707031 27.445312 L 14.707031 25.988281 C 14.707031 25.621094 14.464844 25.378906 14.101562 25.378906 C 13.734375 25.378906 13.492188 25.621094 13.492188 25.988281 L 13.492188 27.445312 L 11.605469 27.445312 L 11.605469 25.988281 C 11.605469 25.621094 11.363281 25.378906 11 25.378906 C 10.632812 25.378906 10.390625 25.621094 10.390625 25.988281 L 10.390625 27.445312 L 9.539062 27.445312 C 9.175781 27.445312 8.929688 27.691406 8.929688 28.054688 C 8.929688 28.417969 9.175781 28.664062 9.539062 28.664062 L 9.601562 28.664062 C 9.84375 29.816406 10.695312 30.972656 11.910156 31.277344 L 11.910156 34.804688 C 11.910156 35.167969 12.152344 35.410156 12.519531 35.410156 L 21.457031 35.410156 Z M 14.160156 28.722656 C 13.917969 29.453125 13.308594 30.183594 12.519531 30.183594 C 11.726562 30.183594 11.121094 29.453125 10.878906 28.722656 Z M 30.636719 20.578125 L 29.542969 20.578125 L 29.542969 19.90625 L 30.636719 19.90625 Z M 32.828125 18.691406 C 30.820312 18.691406 29.359375 18.691406 27.355469 18.691406 L 27.355469 17.902344 C 27.476562 17.902344 33.128906 17.902344 32.828125 17.902344 Z M 32.28125 13.765625 C 31.609375 14.496094 31.246094 14.984375 31.246094 16.746094 L 30.699219 16.746094 L 30.699219 12.550781 L 32.703125 10.542969 C 32.949219 10.300781 32.949219 9.9375 32.703125 9.691406 C 32.460938 9.449219 32.097656 9.449219 31.855469 9.691406 L 30.089844 11.457031 L 28.328125 9.691406 C 28.082031 9.449219 27.71875 9.449219 27.476562 9.691406 C 27.234375 9.9375 27.234375 10.300781 27.476562 10.542969 L 29.480469 12.550781 L 29.480469 16.683594 L 28.933594 16.683594 C 28.875 15.105469 28.507812 14.617188 27.839844 13.828125 C 24.617188 9.875 27.050781 6.835938 29.664062 6.53125 C 32.828125 6.167969 35.867188 9.9375 32.28125 13.765625 Z M 32.28125 13.765625 " fill-opacity="1" fill-rule="nonzero"/></g><g clip-path="url(#899befa22e)"><path fill="#ee6400" d="M 30.089844 4.464844 C 30.457031 4.464844 30.699219 4.222656 30.699219 3.855469 L 30.699219 1.789062 C 30.699219 1.425781 30.457031 1.179688 30.089844 1.179688 C 29.726562 1.179688 29.484375 1.425781 29.484375 1.789062 L 29.484375 3.855469 C 29.484375 4.222656 29.726562 4.464844 30.089844 4.464844 Z M 30.089844 4.464844 " fill-opacity="1" fill-rule="nonzero"/></g><path fill="#ee6400" d="M 23.949219 6.652344 C 24.191406 6.894531 24.558594 6.894531 24.800781 6.652344 C 25.042969 6.410156 25.042969 6.042969 24.800781 5.800781 L 23.339844 4.34375 C 23.097656 4.097656 22.734375 4.097656 22.492188 4.34375 C 22.246094 4.585938 22.246094 4.949219 22.492188 5.195312 Z M 23.949219 6.652344 " fill-opacity="1" fill-rule="nonzero"/><path fill="#ee6400" d="M 21.09375 12.003906 L 22.976562 12.914062 C 23.28125 13.035156 23.644531 12.914062 23.765625 12.613281 C 23.890625 12.308594 23.765625 11.941406 23.464844 11.820312 L 21.578125 10.910156 C 21.273438 10.789062 20.910156 10.910156 20.789062 11.214844 C 20.667969 11.515625 20.789062 11.820312 21.09375 12.003906 Z M 21.09375 12.003906 " fill-opacity="1" fill-rule="nonzero"/><g clip-path="url(#4118e7f6b1)"><path fill="#ee6400" d="M 39.210938 10.910156 C 39.027344 10.664062 38.601562 10.605469 38.359375 10.789062 L 36.71875 12.0625 C 36.476562 12.246094 36.414062 12.671875 36.597656 12.914062 C 36.777344 13.160156 37.203125 13.21875 37.449219 13.035156 L 39.089844 11.761719 C 39.332031 11.515625 39.394531 11.152344 39.210938 10.910156 Z M 39.210938 10.910156 " fill-opacity="1" fill-rule="nonzero"/></g><path fill="#ee6400" d="M 37.691406 4.34375 C 37.449219 4.097656 37.082031 4.097656 36.839844 4.34375 L 35.378906 5.800781 C 35.136719 6.042969 35.136719 6.410156 35.378906 6.652344 C 35.625 6.894531 35.988281 6.894531 36.230469 6.652344 L 37.691406 5.195312 C 37.875 4.949219 37.875 4.585938 37.691406 4.34375 Z M 37.691406 4.34375 " fill-opacity="1" fill-rule="nonzero"/></svg>