<svg xmlns="http://www.w3.org/2000/svg" xmlns:xlink="http://www.w3.org/1999/xlink" width="54" zoomAndPan="magnify" viewBox="0 0 40.5 39.749999" height="53" preserveAspectRatio="xMidYMid meet" version="1.0"><defs><clipPath id="7fd2a45194"><path d="M 0.839844 2 L 39.363281 2 L 39.363281 37 L 0.839844 37 Z M 0.839844 2 " clip-rule="nonzero"/></clipPath></defs><path fill="#ee6400" d="M 21.375 31.230469 C 20.378906 31.230469 19.5625 32.042969 19.5625 33.042969 C 19.5625 34.042969 20.378906 34.855469 21.375 34.855469 C 22.375 34.855469 23.1875 34.042969 23.1875 33.042969 C 23.1875 32.042969 22.375 31.230469 21.375 31.230469 Z M 21.375 33.648438 C 21.042969 33.648438 20.773438 33.378906 20.773438 33.042969 C 20.773438 32.710938 21.042969 32.441406 21.375 32.441406 C 21.710938 32.441406 21.980469 32.710938 21.980469 33.042969 C 21.980469 33.378906 21.710938 33.648438 21.375 33.648438 Z M 21.375 33.648438 " fill-opacity="1" fill-rule="nonzero"/><path fill="#ee6400" d="M 12.316406 31.230469 C 11.316406 31.230469 10.503906 32.042969 10.503906 33.042969 C 10.503906 34.042969 11.316406 34.855469 12.316406 34.855469 C 13.316406 34.855469 14.128906 34.042969 14.128906 33.042969 C 14.128906 32.042969 13.316406 31.230469 12.316406 31.230469 Z M 12.316406 33.648438 C 11.984375 33.648438 11.710938 33.378906 11.710938 33.042969 C 11.710938 32.710938 11.984375 32.441406 12.316406 32.441406 C 12.652344 32.441406 12.921875 32.710938 12.921875 33.042969 C 12.921875 33.378906 12.652344 33.648438 12.316406 33.648438 Z M 12.316406 33.648438 " fill-opacity="1" fill-rule="nonzero"/><path fill="#ee6400" d="M 4.460938 23.980469 L 11.109375 23.980469 C 11.441406 23.980469 11.710938 23.710938 11.710938 23.378906 C 11.710938 23.042969 11.441406 22.773438 11.109375 22.773438 L 4.460938 22.773438 C 4.128906 22.773438 3.859375 23.042969 3.859375 23.378906 C 3.859375 23.710938 4.128906 23.980469 4.460938 23.980469 Z M 4.460938 23.980469 " fill-opacity="1" fill-rule="nonzero"/><path fill="#ee6400" d="M 11.710938 25.191406 C 11.710938 24.855469 11.441406 24.585938 11.109375 24.585938 L 4.460938 24.585938 C 4.128906 24.585938 3.859375 24.855469 3.859375 25.191406 C 3.859375 25.523438 4.128906 25.792969 4.460938 25.792969 L 11.109375 25.792969 C 11.441406 25.792969 11.710938 25.523438 11.710938 25.191406 Z M 11.710938 25.191406 " fill-opacity="1" fill-rule="nonzero"/><g clip-path="url(#7fd2a45194)"><path fill="#ee6400" d="M 38.898438 32.4375 L 32.855469 32.4375 L 32.855469 9.484375 L 34.066406 9.484375 L 34.066406 18.546875 C 33.785156 18.546875 33.527344 18.734375 33.472656 19.023438 C 33.40625 19.351562 33.621094 19.667969 33.945312 19.734375 L 34.066406 19.757812 L 34.066406 20.363281 C 33.785156 20.363281 33.527344 20.550781 33.472656 20.835938 C 33.40625 21.164062 33.621094 21.480469 33.945312 21.546875 L 34.066406 21.570312 L 34.066406 22.175781 C 33.785156 22.175781 33.527344 22.363281 33.472656 22.652344 C 33.40625 22.980469 33.621094 23.296875 33.945312 23.363281 L 34.066406 23.386719 L 34.066406 23.992188 C 33.785156 23.992188 33.527344 24.179688 33.472656 24.464844 C 33.40625 24.792969 33.621094 25.109375 33.945312 25.175781 L 34.066406 25.199219 L 34.066406 25.804688 C 33.785156 25.804688 33.527344 25.992188 33.472656 26.28125 C 33.40625 26.605469 33.621094 26.925781 33.945312 26.992188 L 34.066406 27.015625 L 34.066406 27.621094 C 33.785156 27.621094 33.527344 27.808594 33.472656 28.09375 C 33.40625 28.421875 33.621094 28.738281 33.945312 28.804688 L 34.066406 28.828125 L 34.066406 29.417969 C 34.066406 29.445312 34.078125 29.464844 34.078125 29.488281 C 34.082031 29.527344 34.089844 29.566406 34.101562 29.609375 C 34.117188 29.648438 34.136719 29.683594 34.15625 29.71875 C 34.167969 29.742188 34.171875 29.761719 34.1875 29.78125 L 35.09375 30.992188 C 35.105469 31.007812 35.128906 31.015625 35.140625 31.03125 C 35.167969 31.058594 35.183594 31.089844 35.214844 31.113281 C 35.234375 31.125 35.257812 31.132812 35.28125 31.148438 C 35.300781 31.160156 35.320312 31.167969 35.339844 31.179688 C 35.417969 31.210938 35.496094 31.234375 35.574219 31.234375 C 35.65625 31.234375 35.734375 31.210938 35.808594 31.179688 C 35.832031 31.167969 35.851562 31.160156 35.871094 31.148438 C 35.894531 31.132812 35.917969 31.128906 35.9375 31.113281 C 35.96875 31.089844 35.984375 31.058594 36.007812 31.03125 C 36.023438 31.015625 36.046875 31.007812 36.058594 30.992188 L 36.964844 29.78125 C 36.980469 29.761719 36.980469 29.742188 36.996094 29.71875 C 37.015625 29.683594 37.035156 29.648438 37.046875 29.609375 C 37.0625 29.566406 37.066406 29.527344 37.074219 29.488281 C 37.074219 29.464844 37.085938 29.445312 37.085938 29.421875 C 37.367188 29.421875 37.621094 29.222656 37.675781 28.933594 C 37.742188 28.605469 37.53125 28.289062 37.203125 28.222656 L 37.085938 28.199219 L 37.085938 27.605469 C 37.367188 27.605469 37.621094 27.40625 37.675781 27.121094 C 37.742188 26.792969 37.53125 26.476562 37.203125 26.410156 L 37.085938 26.386719 L 37.085938 25.792969 C 37.367188 25.792969 37.621094 25.59375 37.675781 25.304688 C 37.742188 24.980469 37.53125 24.660156 37.203125 24.59375 L 37.085938 24.570312 L 37.085938 23.976562 C 37.367188 23.976562 37.621094 23.78125 37.675781 23.492188 C 37.742188 23.164062 37.53125 22.847656 37.203125 22.78125 L 37.085938 22.757812 L 37.085938 22.164062 C 37.367188 22.164062 37.621094 21.964844 37.675781 21.679688 C 37.742188 21.351562 37.53125 21.035156 37.203125 20.96875 L 37.085938 20.945312 L 37.085938 20.347656 C 37.367188 20.347656 37.621094 20.152344 37.675781 19.863281 C 37.742188 19.535156 37.53125 19.21875 37.203125 19.152344 L 37.085938 19.128906 L 37.085938 9.484375 L 38.292969 9.484375 C 38.628906 9.484375 38.898438 9.210938 38.898438 8.878906 L 38.898438 4.640625 C 38.898438 4.304688 38.628906 4.035156 38.292969 4.035156 L 32.855469 4.035156 L 32.855469 2.835938 C 32.855469 2.503906 32.585938 2.234375 32.25 2.234375 L 30.4375 2.234375 C 30.105469 2.234375 29.835938 2.503906 29.835938 2.835938 L 29.835938 4.128906 C 28.796875 4.402344 28.023438 5.339844 28.023438 6.460938 L 28.023438 21.566406 L 26.832031 21.566406 C 26.824219 21.566406 26.820312 21.5625 26.816406 21.5625 L 24.953125 21.5625 C 24.675781 20.179688 23.453125 19.136719 21.988281 19.136719 L 18.96875 19.136719 C 17.296875 19.136719 15.941406 20.496094 15.941406 22.164062 L 15.941406 27.605469 L 14.730469 27.605469 L 14.730469 20.359375 C 14.730469 20.023438 14.460938 19.753906 14.128906 19.753906 L 12.917969 19.753906 L 12.917969 17.335938 C 12.917969 17.003906 12.648438 16.734375 12.316406 16.734375 L 12.015625 16.734375 L 12.015625 15.523438 C 12.015625 15.191406 11.742188 14.921875 11.410156 14.921875 C 11.074219 14.921875 10.804688 15.191406 10.804688 15.523438 L 10.804688 16.734375 L 10.503906 16.734375 C 10.167969 16.734375 9.898438 17.003906 9.898438 17.335938 L 9.898438 19.753906 L 1.441406 19.753906 C 1.109375 19.753906 0.835938 20.023438 0.835938 20.359375 L 0.835938 30.023438 C 0.835938 30.355469 1.109375 30.628906 1.441406 30.628906 L 1.449219 34.25 C 1.117188 34.253906 0.847656 34.523438 0.847656 34.855469 C 0.847656 35.191406 1.117188 35.460938 1.453125 35.460938 L 2.660156 35.460938 C 2.992188 35.460938 3.265625 35.191406 3.265625 34.855469 C 3.265625 34.523438 2.992188 34.25 2.660156 34.25 L 2.648438 30.628906 L 6.878906 30.628906 L 6.878906 33.042969 C 6.878906 33.378906 7.148438 33.648438 7.484375 33.648438 L 8.746094 33.648438 C 9.035156 35.359375 10.523438 36.667969 12.316406 36.667969 C 14.109375 36.667969 15.597656 35.359375 15.886719 33.648438 L 17.804688 33.648438 C 18.09375 35.359375 19.582031 36.667969 21.375 36.667969 C 23.167969 36.667969 24.65625 35.359375 24.945312 33.648438 L 26.210938 33.648438 L 26.210938 35.460938 C 26.210938 35.792969 26.480469 36.0625 26.816406 36.0625 L 38.898438 36.0625 C 39.234375 36.0625 39.503906 35.792969 39.503906 35.460938 L 39.503906 33.042969 C 39.503906 32.710938 39.234375 32.4375 38.898438 32.4375 Z M 35.878906 29.21875 L 35.574219 29.621094 L 35.273438 29.21875 L 35.273438 29.070312 L 35.878906 29.191406 Z M 35.273438 27.835938 L 35.273438 27.253906 L 35.878906 27.375 L 35.878906 27.957031 Z M 35.273438 26.023438 L 35.273438 25.441406 L 35.878906 25.5625 L 35.878906 26.144531 Z M 35.273438 24.210938 L 35.273438 23.628906 L 35.878906 23.75 L 35.878906 24.328125 Z M 35.273438 22.394531 L 35.273438 21.8125 L 35.878906 21.933594 L 35.878906 22.515625 Z M 35.273438 20.582031 L 35.273438 20 L 35.878906 20.121094 L 35.878906 20.703125 Z M 35.878906 18.886719 L 35.273438 18.765625 L 35.273438 9.484375 L 35.878906 9.484375 Z M 32.867188 5.242188 L 37.691406 5.242188 L 37.691406 8.273438 L 32.867188 8.273438 Z M 21.375 29.417969 C 19.582031 29.417969 18.09375 30.726562 17.804688 32.441406 L 15.886719 32.441406 C 15.597656 30.726562 14.109375 29.417969 12.316406 29.417969 C 10.523438 29.417969 9.035156 30.726562 8.746094 32.441406 L 8.085938 32.441406 L 8.085938 28.816406 L 26.210938 28.816406 L 26.210938 32.441406 L 24.945312 32.441406 C 24.65625 30.726562 23.167969 29.417969 21.375 29.417969 Z M 26.210938 22.769531 L 26.210938 25.191406 L 19.566406 25.191406 L 19.566406 22.769531 Z M 29.835938 22.773438 L 29.835938 27.605469 L 27.417969 27.605469 L 27.417969 22.773438 Z M 27.417969 32.4375 L 27.417969 30.628906 L 29.835938 30.628906 L 29.835938 32.4375 Z M 29.835938 29.417969 L 27.417969 29.417969 L 27.417969 28.816406 L 29.835938 28.816406 Z M 19.566406 26.398438 L 26.210938 26.398438 L 26.210938 27.605469 L 19.566406 27.605469 Z M 38.296875 33.648438 L 38.296875 34.855469 L 27.417969 34.855469 L 27.417969 33.648438 Z M 31.042969 3.441406 L 31.648438 3.441406 L 31.648438 32.4375 L 31.042969 32.4375 Z M 29.230469 6.460938 C 29.230469 6.015625 29.476562 5.628906 29.835938 5.421875 L 29.835938 21.566406 L 29.230469 21.566406 Z M 23.695312 21.5625 L 21.929688 21.5625 C 21.839844 21.109375 21.640625 20.699219 21.371094 20.347656 L 21.988281 20.347656 C 22.78125 20.347656 23.445312 20.855469 23.695312 21.5625 Z M 17.148438 22.164062 C 17.148438 21.160156 17.964844 20.34375 18.96875 20.34375 C 19.757812 20.34375 20.425781 20.855469 20.671875 21.5625 L 18.960938 21.5625 C 18.628906 21.5625 18.355469 21.832031 18.355469 22.167969 L 18.355469 27.605469 L 17.148438 27.605469 Z M 11.109375 17.941406 L 11.710938 17.941406 L 11.710938 19.753906 L 11.109375 19.753906 Z M 2.046875 20.960938 L 13.523438 20.960938 L 13.523438 27.605469 L 2.046875 27.605469 Z M 2.046875 29.417969 L 2.046875 28.816406 L 6.878906 28.816406 L 6.878906 29.417969 Z M 12.316406 35.460938 C 10.988281 35.460938 9.910156 34.382812 9.902344 33.054688 C 9.902344 33.050781 9.902344 33.046875 9.902344 33.042969 C 9.902344 33.039062 9.902344 33.035156 9.902344 33.03125 C 9.910156 31.703125 10.988281 30.628906 12.316406 30.628906 C 13.648438 30.628906 14.734375 31.710938 14.734375 33.042969 C 14.734375 34.375 13.648438 35.460938 12.316406 35.460938 Z M 21.375 35.460938 C 20.042969 35.460938 18.960938 34.375 18.960938 33.042969 C 18.960938 31.710938 20.042969 30.628906 21.375 30.628906 C 22.707031 30.628906 23.792969 31.710938 23.792969 33.042969 C 23.792969 34.375 22.707031 35.460938 21.375 35.460938 Z M 21.375 35.460938 " fill-opacity="1" fill-rule="nonzero"/></g></svg>