<svg xmlns="http://www.w3.org/2000/svg" xmlns:xlink="http://www.w3.org/1999/xlink" width="390" zoomAndPan="magnify" viewBox="0 0 292.5 74.249996" height="99" preserveAspectRatio="xMidYMid meet" version="1.0"><defs><g/><clipPath id="d479849a93"><path d="M 1.214844 0 L 290.789062 0 L 290.789062 73.507812 L 1.214844 73.507812 Z M 1.214844 0 " clip-rule="nonzero"/></clipPath><clipPath id="f3999f0c78"><path d="M 29 7.011719 L 59.871094 7.011719 L 59.871094 65.671875 L 29 65.671875 Z M 29 7.011719 " clip-rule="nonzero"/></clipPath><clipPath id="466e8a816d"><path d="M 1.214844 7.011719 L 57 7.011719 L 57 65.671875 L 1.214844 65.671875 Z M 1.214844 7.011719 " clip-rule="nonzero"/></clipPath></defs><g clip-path="url(#d479849a93)"><path fill="#ffffff" d="M 1.214844 0 L 290.789062 0 L 290.789062 73.507812 L 1.214844 73.507812 Z M 1.214844 0 " fill-opacity="1" fill-rule="nonzero"/></g><g clip-path="url(#f3999f0c78)"><path fill="#ee6400" d="M 54.828125 7.011719 L 29.617188 7.011719 L 44.015625 36.867188 C 44.199219 37.234375 44.175781 37.65625 43.964844 38 C 43.726562 38.371094 43.355469 38.582031 42.933594 38.582031 L 41.617188 38.582031 C 41.195312 38.582031 40.796875 38.792969 40.585938 39.1875 C 40.375 39.554688 40.375 40.003906 40.613281 40.375 L 56.382812 65.609375 C 58.492188 64.953125 60.050781 62.949219 60.050781 60.625 L 60.050781 12.261719 C 60.050781 9.359375 57.703125 7.011719 54.828125 7.011719 Z M 54.828125 7.011719 " fill-opacity="1" fill-rule="evenodd"/></g><g clip-path="url(#466e8a816d)"><path fill="#221d19" d="M 56.382812 65.609375 L 17.671875 30.378906 C 17.300781 30.035156 17.167969 29.535156 17.355469 29.058594 C 17.539062 28.585938 17.960938 28.296875 18.460938 28.296875 L 23.234375 28.269531 C 23.734375 28.269531 24.15625 27.980469 24.316406 27.503906 C 24.5 27.03125 24.394531 26.527344 24 26.1875 L 3.640625 7.855469 C 2.191406 8.78125 1.214844 10.414062 1.214844 12.261719 L 1.214844 60.625 C 1.214844 63.5 3.5625 65.847656 6.464844 65.847656 L 54.828125 65.847656 C 55.355469 65.847656 55.882812 65.769531 56.382812 65.609375 Z M 56.382812 65.609375 " fill-opacity="1" fill-rule="evenodd"/></g><g fill="#221d19" fill-opacity="1"><g transform="translate(71.716464, 49.784286)"><g><path d="M 17.6875 -20.015625 C 17.570312 -21.117188 17.09375 -21.976562 16.25 -22.59375 C 15.414062 -23.207031 14.289062 -23.515625 12.875 -23.515625 C 11.425781 -23.515625 10.3125 -23.210938 9.53125 -22.609375 C 8.75 -22.015625 8.359375 -21.269531 8.359375 -20.375 C 8.347656 -19.363281 8.78125 -18.597656 9.65625 -18.078125 C 10.539062 -17.566406 11.59375 -17.171875 12.8125 -16.890625 L 15.328125 -16.28125 C 16.960938 -15.914062 18.410156 -15.382812 19.671875 -14.6875 C 20.941406 -13.988281 21.9375 -13.09375 22.65625 -12 C 23.382812 -10.914062 23.75 -9.59375 23.75 -8.03125 C 23.75 -5.457031 22.789062 -3.410156 20.875 -1.890625 C 18.957031 -0.367188 16.285156 0.390625 12.859375 0.390625 C 9.441406 0.390625 6.71875 -0.382812 4.6875 -1.9375 C 2.65625 -3.488281 1.601562 -5.78125 1.53125 -8.8125 L 7.28125 -8.8125 C 7.382812 -7.40625 7.941406 -6.347656 8.953125 -5.640625 C 9.960938 -4.929688 11.238281 -4.578125 12.78125 -4.578125 C 14.289062 -4.578125 15.492188 -4.894531 16.390625 -5.53125 C 17.296875 -6.175781 17.753906 -7.007812 17.765625 -8.03125 C 17.753906 -8.988281 17.335938 -9.722656 16.515625 -10.234375 C 15.691406 -10.742188 14.515625 -11.179688 12.984375 -11.546875 L 9.9375 -12.3125 C 7.5625 -12.882812 5.6875 -13.785156 4.3125 -15.015625 C 2.945312 -16.253906 2.269531 -17.90625 2.28125 -19.96875 C 2.269531 -21.664062 2.722656 -23.148438 3.640625 -24.421875 C 4.554688 -25.703125 5.816406 -26.695312 7.421875 -27.40625 C 9.035156 -28.113281 10.867188 -28.46875 12.921875 -28.46875 C 15.003906 -28.46875 16.820312 -28.109375 18.375 -27.390625 C 19.9375 -26.679688 21.148438 -25.691406 22.015625 -24.421875 C 22.890625 -23.148438 23.34375 -21.679688 23.375 -20.015625 Z M 17.6875 -20.015625 "/></g></g></g><g fill="#221d19" fill-opacity="1"><g transform="translate(96.034051, 49.784286)"><g><path d="M 2.4375 -28.09375 L 9.765625 -28.09375 L 17.5 -9.21875 L 17.828125 -9.21875 L 25.5625 -28.09375 L 32.890625 -28.09375 L 32.890625 0 L 27.125 0 L 27.125 -18.28125 L 26.890625 -18.28125 L 19.625 -0.140625 L 15.703125 -0.140625 L 8.4375 -18.359375 L 8.203125 -18.359375 L 8.203125 0 L 2.4375 0 Z M 2.4375 -28.09375 "/></g></g></g><g fill="#221d19" fill-opacity="1"><g transform="translate(130.744574, 49.784286)"><g/></g></g><g fill="#221d19" fill-opacity="1"><g transform="translate(138.732351, 49.784286)"><g><path d="M 2.4375 0 L 2.4375 -28.09375 L 21.375 -28.09375 L 21.375 -23.1875 L 8.375 -23.1875 L 8.375 -16.5 L 20.390625 -16.5 L 20.390625 -11.609375 L 8.375 -11.609375 L 8.375 -4.890625 L 21.421875 -4.890625 L 21.421875 0 Z M 2.4375 0 "/></g></g></g><g fill="#221d19" fill-opacity="1"><g transform="translate(161.41832, 49.784286)"><g><path d="M 8.171875 -28.09375 L 8.171875 0 L 2.328125 0 L 2.328125 -28.09375 Z M 8.171875 -28.09375 "/></g></g></g><g fill="#221d19" fill-opacity="1"><g transform="translate(170.955449, 49.784286)"><g><path d="M 11.9375 0.40625 C 9.78125 0.40625 7.914062 -0.03125 6.34375 -0.90625 C 4.78125 -1.789062 3.578125 -3.046875 2.734375 -4.671875 C 1.898438 -6.296875 1.484375 -8.21875 1.484375 -10.4375 C 1.484375 -12.601562 1.898438 -14.503906 2.734375 -16.140625 C 3.578125 -17.773438 4.765625 -19.050781 6.296875 -19.96875 C 7.828125 -20.882812 9.628906 -21.34375 11.703125 -21.34375 C 13.554688 -21.34375 15.226562 -20.945312 16.71875 -20.15625 C 18.21875 -19.375 19.40625 -18.1875 20.28125 -16.59375 C 21.164062 -15.007812 21.609375 -13.023438 21.609375 -10.640625 L 21.609375 -9.03125 L 7.25 -9.03125 C 7.25 -7.457031 7.675781 -6.21875 8.53125 -5.3125 C 9.394531 -4.40625 10.5625 -3.953125 12.03125 -3.953125 C 13.007812 -3.953125 13.851562 -4.15625 14.5625 -4.5625 C 15.28125 -4.976562 15.785156 -5.585938 16.078125 -6.390625 L 21.484375 -6.03125 C 21.066406 -4.070312 20.019531 -2.507812 18.34375 -1.34375 C 16.675781 -0.175781 14.539062 0.40625 11.9375 0.40625 Z M 7.25 -12.65625 L 16.109375 -12.65625 C 16.097656 -13.914062 15.691406 -14.953125 14.890625 -15.765625 C 14.097656 -16.578125 13.066406 -16.984375 11.796875 -16.984375 C 10.492188 -16.984375 9.425781 -16.5625 8.59375 -15.71875 C 7.769531 -14.875 7.320312 -13.851562 7.25 -12.65625 Z M 7.25 -12.65625 "/></g></g></g><g fill="#221d19" fill-opacity="1"><g transform="translate(193.065567, 49.784286)"><g><path d="M 11.84375 0.40625 C 9.6875 0.40625 7.832031 -0.0507812 6.28125 -0.96875 C 4.738281 -1.882812 3.550781 -3.160156 2.71875 -4.796875 C 1.894531 -6.429688 1.484375 -8.316406 1.484375 -10.453125 C 1.484375 -12.609375 1.898438 -14.5 2.734375 -16.125 C 3.566406 -17.757812 4.753906 -19.035156 6.296875 -19.953125 C 7.847656 -20.878906 9.691406 -21.34375 11.828125 -21.34375 C 13.660156 -21.34375 15.269531 -21.007812 16.65625 -20.34375 C 18.039062 -19.675781 19.132812 -18.738281 19.9375 -17.53125 C 20.738281 -16.320312 21.179688 -14.90625 21.265625 -13.28125 L 15.75 -13.28125 C 15.59375 -14.332031 15.179688 -15.175781 14.515625 -15.8125 C 13.859375 -16.457031 12.992188 -16.78125 11.921875 -16.78125 C 10.566406 -16.78125 9.476562 -16.238281 8.65625 -15.15625 C 7.832031 -14.070312 7.421875 -12.53125 7.421875 -10.53125 C 7.421875 -8.519531 7.828125 -6.960938 8.640625 -5.859375 C 9.460938 -4.753906 10.554688 -4.203125 11.921875 -4.203125 C 12.921875 -4.203125 13.765625 -4.503906 14.453125 -5.109375 C 15.140625 -5.722656 15.570312 -6.59375 15.75 -7.71875 L 21.265625 -7.71875 C 21.171875 -6.113281 20.734375 -4.695312 19.953125 -3.46875 C 19.171875 -2.238281 18.09375 -1.285156 16.71875 -0.609375 C 15.34375 0.0664062 13.71875 0.40625 11.84375 0.40625 Z M 11.84375 0.40625 "/></g></g></g><g fill="#221d19" fill-opacity="1"><g transform="translate(214.778059, 49.784286)"><g><path d="M 13.53125 -21.0625 L 13.53125 -16.671875 L 9.578125 -16.671875 L 9.578125 -6.46875 C 9.578125 -5.664062 9.757812 -5.125 10.125 -4.84375 C 10.488281 -4.5625 10.960938 -4.421875 11.546875 -4.421875 C 11.816406 -4.421875 12.085938 -4.441406 12.359375 -4.484375 C 12.640625 -4.535156 12.851562 -4.578125 13 -4.609375 L 13.921875 -0.265625 C 13.628906 -0.171875 13.21875 -0.0625 12.6875 0.0625 C 12.15625 0.1875 11.507812 0.257812 10.75 0.28125 C 8.632812 0.375 6.929688 -0.0820312 5.640625 -1.09375 C 4.359375 -2.101562 3.722656 -3.640625 3.734375 -5.703125 L 3.734375 -16.671875 L 0.84375 -16.671875 L 0.84375 -21.0625 L 3.734375 -21.0625 L 3.734375 -26.109375 L 9.578125 -26.109375 L 9.578125 -21.0625 Z M 13.53125 -21.0625 "/></g></g></g><g fill="#221d19" fill-opacity="1"><g transform="translate(228.812391, 49.784286)"><g><path d="M 2.328125 0 L 2.328125 -21.0625 L 8 -21.0625 L 8 -17.390625 L 8.21875 -17.390625 C 8.601562 -18.703125 9.242188 -19.691406 10.140625 -20.359375 C 11.046875 -21.035156 12.09375 -21.375 13.28125 -21.375 C 13.84375 -21.375 14.363281 -21.300781 14.84375 -21.15625 C 15.332031 -21.019531 15.769531 -20.835938 16.15625 -20.609375 L 14.40625 -15.78125 C 14.125 -15.914062 13.820312 -16.03125 13.5 -16.125 C 13.175781 -16.21875 12.8125 -16.265625 12.40625 -16.265625 C 11.226562 -16.265625 10.226562 -15.863281 9.40625 -15.0625 C 8.59375 -14.257812 8.179688 -13.210938 8.171875 -11.921875 L 8.171875 0 Z M 2.328125 0 "/></g></g></g><g fill="#221d19" fill-opacity="1"><g transform="translate(244.396063, 49.784286)"><g><path d="M 2.328125 0 L 2.328125 -21.0625 L 8.171875 -21.0625 L 8.171875 0 Z M 5.265625 -23.78125 C 4.398438 -23.78125 3.65625 -24.070312 3.03125 -24.65625 C 2.414062 -25.238281 2.109375 -25.9375 2.109375 -26.75 C 2.109375 -27.5625 2.414062 -28.253906 3.03125 -28.828125 C 3.65625 -29.410156 4.398438 -29.703125 5.265625 -29.703125 C 6.128906 -29.703125 6.875 -29.410156 7.5 -28.828125 C 8.125 -28.253906 8.4375 -27.5625 8.4375 -26.75 C 8.4375 -25.9375 8.125 -25.238281 7.5 -24.65625 C 6.875 -24.070312 6.128906 -23.78125 5.265625 -23.78125 Z M 5.265625 -23.78125 "/></g></g></g><g fill="#221d19" fill-opacity="1"><g transform="translate(253.933192, 49.784286)"><g><path d="M 2.328125 0 L 2.328125 -28.09375 L 8.171875 -28.09375 L 8.171875 -13.078125 L 8.484375 -13.078125 L 15.234375 -21.0625 L 21.953125 -21.0625 L 14.125 -11.953125 L 22.34375 0 L 15.5 0 L 9.75 -8.484375 L 8.171875 -6.6875 L 8.171875 0 Z M 2.328125 0 "/></g></g></g></svg>